<?xml version="1.0" standalone="no"?>
<!DOCTYPE svg PUBLIC "-//W3C//DTD SVG 20010904//EN"
 "http://www.w3.org/TR/2001/REC-SVG-20010904/DTD/svg10.dtd">
<svg version="1.0" xmlns="http://www.w3.org/2000/svg"
 width="260.000000pt" height="260.000000pt" viewBox="0 0 260.000000 260.000000"
 preserveAspectRatio="xMidYMid meet">
<metadata>
Created by potrace 1.11, written by Peter Selinger 2001-2013
</metadata>
<g transform="translate(0.000000,260.000000) scale(0.100000,-0.100000)"
fill="#000000" stroke="none">
<path d="M1308 1596 l-245 -184 -81 55 -81 55 -88 -68 c-48 -38 -92 -72 -98
-77 -5 -4 -20 -15 -32 -25 -12 -10 -56 -45 -98 -78 -43 -32 -143 -111 -224
-174 -80 -63 -171 -134 -201 -157 -30 -23 -71 -56 -90 -73 -41 -37 -53 -44
155 83 72 44 145 88 164 99 19 11 58 34 86 51 83 52 86 54 175 107 47 28 117
71 157 95 l71 43 92 -55 92 -55 247 166 247 167 195 -116 c106 -63 197 -115
201 -115 4 0 42 29 85 65 43 36 81 65 85 65 3 0 35 -15 70 -33 204 -109 382
-199 373 -190 -5 5 -46 36 -90 69 -44 32 -87 64 -95 71 -57 46 -275 203 -282
203 -5 0 -39 -25 -74 -55 -36 -30 -69 -55 -74 -55 -5 0 -91 64 -192 143 -101
79 -188 146 -194 150 -7 4 -115 -71 -256 -177z"/>
</g>
</svg>
